<svg width="109" height="111" viewBox="0 0 109 111" fill="none" xmlns="http://www.w3.org/2000/svg">
<path opacity="0.1" d="M106.893 52.0964L95.7323 48.4429C94.7722 44.6904 93.2793 41.1492 91.3435 37.8981L96.6676 27.4095C97.1465 26.4584 96.9666 25.3163 96.2179 24.5653L90.6128 18.9669C89.8641 18.2182 88.7241 18.0339 87.7776 18.5173L83.6496 20.6105L77.2778 23.8391C75.9108 23.0252 74.4898 22.2877 73.0216 21.638C71.0049 20.7431 68.9094 20.0102 66.7352 19.4571L63.0861 8.30073C62.7556 7.28672 61.8181 6.60547 60.7568 6.60547H52.8336C52.7212 6.60547 52.6111 6.61446 52.4964 6.6347C51.5791 6.75386 50.8056 7.39239 50.5088 8.29623L46.8598 19.4571C43.1073 20.4126 39.5661 21.9078 36.315 23.8391L31.9689 21.638L25.8264 18.5195C24.8753 18.0406 23.7332 18.2205 22.9822 18.9692L21.3454 20.606L17.3838 24.5721C16.6306 25.3208 16.4508 26.4607 16.9342 27.4072L22.2538 37.9003C20.3179 41.1514 18.8273 44.6926 17.8717 48.4451L6.71088 52.0942C5.69688 52.4247 5.01562 53.3623 5.01562 54.4235V62.3467C5.01562 63.4012 5.69238 64.3387 6.70639 64.667L17.8672 68.3206C18.8273 72.0731 20.3202 75.6142 22.256 78.8609L16.9364 89.3539C16.453 90.305 16.6329 91.4471 17.3861 92.1936L21.3477 96.1552L22.9845 97.7988C23.7377 98.5475 24.8731 98.7273 25.8242 98.2484L31.9734 95.13L36.3195 92.9288C39.5706 94.8602 43.1118 96.3553 46.8643 97.3109L50.5088 108.472C50.8079 109.376 51.5836 110.01 52.4964 110.133C52.6088 110.151 52.7235 110.162 52.8381 110.162H60.7613C61.8226 110.162 62.7534 109.486 63.0861 108.478L66.7397 97.3131C68.9116 96.76 71.0093 96.0248 73.0261 95.13C74.4943 94.4824 75.913 93.7427 77.2823 92.9288L83.6541 96.1619L87.7731 98.2484C88.7241 98.7273 89.8708 98.5475 90.6172 97.7988L96.2224 92.1936C96.9711 91.4449 97.151 90.305 96.6721 89.3584L91.348 78.8609C93.2838 75.6142 94.7745 72.0731 95.7368 68.3206L106.893 64.6715C107.905 64.341 108.588 63.4034 108.588 62.3422V54.419C108.588 53.3578 107.912 52.4269 106.898 52.0987L106.893 52.0964Z" fill="#1A1A1A"/>
<path d="M94.2786 46.4171L83.1133 42.7635C82.1577 39.011 80.6625 35.4699 78.7312 32.2188L84.0508 21.7302C84.5342 20.7791 84.3498 19.637 83.6011 18.8905L79.6395 14.9289L73.2677 18.1575C71.9007 17.3436 70.4798 16.6062 69.0116 15.9564L64.6655 18.1575C61.4144 16.2262 57.8732 14.731 54.1207 13.7755L50.4761 2.61916C50.1816 1.71532 49.4014 1.07678 48.4886 0.953125C47.5713 1.07229 46.7978 1.71082 46.501 2.61466L42.852 13.7755C39.0994 14.731 35.5583 16.2262 32.3072 18.1575L27.9611 15.9564L21.8186 12.8379C20.8675 12.359 19.7254 12.5389 18.9744 13.2876L17.3376 14.9244L13.376 18.8905C12.6228 19.6392 12.4429 20.7791 12.9263 21.7257L18.246 32.2188C16.3101 35.4699 14.8195 39.011 13.8639 42.7635L2.70307 46.4126C1.68906 46.7431 1.00781 47.6807 1.00781 48.7419V56.6651C1.00781 57.7196 1.68457 58.6572 2.69858 58.9854L13.8594 62.639C14.8195 66.3915 16.3124 69.9327 18.2482 73.1793L12.9286 83.6724C12.4452 84.6234 12.6251 85.7656 13.3783 86.512L17.3399 90.4736L18.9767 92.1172C19.7299 92.8659 20.8653 93.0458 21.8163 92.5669L27.9656 89.4484L32.3117 87.2472C35.5628 89.1786 39.1039 90.6737 42.8564 91.6293L46.501 102.79C46.8001 103.694 47.5757 104.328 48.4886 104.452C48.601 104.47 48.7157 104.481 48.8303 104.481H56.7535C57.8148 104.481 58.7456 103.804 59.0783 102.797L62.7319 91.6315C64.9038 91.0784 67.0015 90.3432 69.0183 89.4484C70.4865 88.8009 71.9052 88.0611 73.2745 87.2472L79.6463 90.4804L83.6079 86.5143C84.3611 85.7656 84.541 84.6257 84.0576 83.6791L78.738 73.1815C80.6693 69.9349 82.1645 66.3937 83.12 62.6412L94.2808 58.9922C95.2948 58.6617 95.9761 57.7241 95.9761 56.6629V48.7397C95.9761 47.6784 95.2948 46.7476 94.2853 46.4194L94.2786 46.4171ZM52.7874 80.0952C37.683 80.0952 25.3912 67.808 25.3912 52.699C25.3912 37.5901 37.683 25.3073 52.7874 25.3073C67.8919 25.3073 80.1836 37.5946 80.1836 52.699C80.1836 67.8035 67.8964 80.0952 52.7874 80.0952Z" fill="#E6DFFF"/>
<path d="M69.0093 15.9505L64.6632 18.1516C61.4121 16.2203 57.871 14.7251 54.1185 13.7696L50.4739 2.61323C50.1793 1.70939 49.3992 1.07086 48.4863 0.947197C48.601 0.929211 48.7089 0.917969 48.8236 0.917969H56.7468C57.808 0.917969 58.7433 1.59922 59.0761 2.61323L62.7252 13.7696C64.8971 14.3227 66.9948 15.0579 69.0116 15.9505H69.0093Z" fill="#DAD7FC"/>
<path d="M104.569 48.7335V56.6567C104.569 57.7179 103.888 58.6532 102.874 58.986L91.7176 62.635C90.7575 66.3876 89.2669 69.9287 87.3288 73.1753L92.6529 83.6729C93.1318 84.6195 92.9519 85.7594 92.2032 86.5081L86.5981 92.1132C85.8494 92.8619 84.7049 93.0418 83.7539 92.5629L79.6349 90.4764L83.5965 86.5103C84.3497 85.7616 84.5296 84.6217 84.0462 83.6752L78.7266 73.1776C80.6579 69.931 82.1531 66.3898 83.1086 62.6373L94.2694 58.9882C95.2835 58.6577 95.9647 57.7201 95.9647 56.6589V48.7357C95.9647 47.6745 95.2834 46.7437 94.2739 46.4154L83.1086 42.7618C82.1531 39.0093 80.6579 35.4682 78.7266 32.2171L84.0462 21.7285C84.5296 20.7774 84.3452 19.6353 83.5965 18.8888L79.6349 14.9272L83.7629 12.834C84.7094 12.3506 85.8494 12.5349 86.5981 13.2837L92.2032 18.8821C92.9519 19.6353 93.1318 20.7752 92.6529 21.7262L87.3288 32.2148C89.2646 35.4659 90.7553 39.0071 91.7176 42.7596L102.878 46.4132C103.892 46.7392 104.569 47.6722 104.569 48.7335Z" fill="#DAD7FC"/>
<path d="M52.7849 25.3008C37.6804 25.3008 25.3887 37.588 25.3887 52.6925C25.3887 67.7969 37.6804 80.0887 52.7849 80.0887C67.8893 80.0887 80.1811 67.8014 80.1811 52.6925C80.1811 37.5835 67.8938 25.3008 52.7849 25.3008ZM52.7849 62.1019C47.5979 62.1019 43.3755 57.8839 43.3755 52.6925C43.3755 47.501 47.5979 43.2876 52.7849 43.2876C57.9718 43.2876 62.1942 47.5055 62.1942 52.6925C62.1942 57.8795 57.9718 62.1019 52.7849 62.1019Z" fill="#DAD7FC"/>
<path d="M62.1937 52.6978C62.1937 57.8893 57.9713 62.1072 52.7844 62.1072C47.5974 62.1072 43.375 57.8893 43.375 52.6978C43.375 47.5064 47.5974 43.293 52.7844 43.293C57.9713 43.293 62.1937 47.5109 62.1937 52.6978Z" stroke="#8664FF" stroke-linecap="round" stroke-linejoin="round"/>
<path d="M102.877 46.4168L91.7166 42.7632C90.7566 39.0107 89.2659 35.4695 87.3279 32.2184L92.652 21.7298C93.1309 20.7788 92.951 19.6366 92.2023 18.8856L86.5971 13.2872C85.8484 12.5385 84.7085 12.3542 83.762 12.8376L79.634 14.9308L73.2621 18.1594C71.8951 17.3455 70.4742 16.6081 69.006 15.9583C66.9892 15.0634 64.8938 14.3305 62.7196 13.7774L59.0705 2.62104C58.74 1.60703 57.8025 0.925781 56.7412 0.925781H48.818C48.7034 0.925781 48.5954 0.934775 48.4808 0.95501C47.5634 1.07417 46.79 1.71271 46.4932 2.61654L42.8441 13.7774C39.0916 14.7329 35.5505 16.2281 32.2994 18.1594L27.9533 15.9583L21.8108 12.8398C20.8597 12.3609 19.7176 12.5408 18.9666 13.2895L17.3298 14.9263L13.3682 18.8924C12.615 19.6411 12.4351 20.781 12.9185 21.7276L18.2381 32.2206C16.3023 35.4718 14.8116 39.0129 13.8561 42.7654L2.69526 46.4145C1.68125 46.745 1 47.6826 1 48.7438V56.667C1 57.7215 1.67675 58.659 2.69076 58.9873L13.8516 62.6409C14.8116 66.3934 16.3046 69.9345 18.2404 73.1812L12.9208 83.6742C12.4374 84.6253 12.6173 85.7675 13.3705 86.5139L17.3321 90.4755L18.9689 92.1191C19.7221 92.8678 20.8575 93.0476 21.8085 92.5687L27.9578 89.4503L32.3039 87.2491C35.555 89.1805 39.0961 90.6756 42.8486 91.6312L46.4932 102.792C46.7923 103.696 47.5679 104.33 48.4808 104.454C48.5932 104.472 48.7079 104.483 48.8225 104.483H56.7457C57.8069 104.483 58.7378 103.806 59.0705 102.799L62.7241 91.6334C64.896 91.0803 66.9937 90.3451 69.0105 89.4503C70.4787 88.8027 71.8974 88.063 73.2666 87.2491L79.6385 90.4823L83.7575 92.5687C84.7085 93.0476 85.8552 92.8678 86.6016 92.1191L92.2068 86.5139C92.9555 85.7652 93.1354 84.6253 92.6565 83.6787L87.3324 73.1812C89.2682 69.9345 90.7588 66.3934 91.7211 62.6409L102.877 58.9918C103.889 58.6613 104.573 57.7237 104.573 56.6625V48.7393C104.573 47.6781 103.896 46.7473 102.882 46.419L102.877 46.4168ZM52.7841 80.0949C37.6797 80.0949 25.3879 67.8076 25.3879 52.6987C25.3879 37.5897 37.6797 25.3069 52.7841 25.3069C67.8886 25.3069 80.1803 37.5942 80.1803 52.6987C80.1803 67.8031 67.8931 80.0949 52.7841 80.0949Z" stroke="#8664FF" stroke-linecap="round" stroke-linejoin="round"/>
<path d="M52.7849 25.3008C37.6804 25.3008 25.3887 37.588 25.3887 52.6925C25.3887 67.7969 37.6804 80.0887 52.7849 80.0887C67.8893 80.0887 80.1811 67.8014 80.1811 52.6925C80.1811 37.5835 67.8938 25.3008 52.7849 25.3008ZM52.7849 62.1019C47.5979 62.1019 43.3755 57.8839 43.3755 52.6925C43.3755 47.501 47.5979 43.2876 52.7849 43.2876C57.9718 43.2876 62.1942 47.5055 62.1942 52.6925C62.1942 57.8794 57.9718 62.1019 52.7849 62.1019Z" stroke="#8664FF" stroke-linecap="round" stroke-linejoin="round"/>
<path d="M62.1937 52.6978C62.1937 57.8893 57.9713 62.1072 52.7844 62.1072C47.5974 62.1072 43.375 57.8893 43.375 52.6978C43.375 47.5064 47.5974 43.293 52.7844 43.293C57.9713 43.293 62.1937 47.5109 62.1937 52.6978Z" stroke="#8664FF" stroke-linecap="round" stroke-linejoin="round"/>
</svg>
